<svg width="72" height="72" viewBox="0 0 72 72" fill="none" xmlns="http://www.w3.org/2000/svg">
<rect width="72" height="72" fill="#F2F1FF"/>
<path opacity="0.35" d="M41.0345 41.9997L51.5919 31.4423C53.1363 29.898 54.002 27.8067 54.002 25.6249V22.1126C54.002 19.8403 52.1615 17.9999 49.8893 17.9999H46.377C44.1952 17.9999 42.1038 18.8656 40.5616 20.4099L30.0021 30.9673L22.9241 29.9556C20.6888 29.6369 18.4248 30.7946 17.4254 33.0011C16.5165 35.0101 17.1231 37.3935 18.6839 38.9522L33.0497 53.318C34.6084 54.8767 36.9917 55.4833 39.0008 54.5744C41.2073 53.575 42.3671 51.311 42.0463 49.0757L41.0345 41.9997Z" fill="#4A3AFF"/>
<path d="M44.7481 30.338C46.4517 30.338 47.8327 28.957 47.8327 27.2535C47.8327 25.5499 46.4517 24.1689 44.7481 24.1689C43.0446 24.1689 41.6636 25.5499 41.6636 27.2535C41.6636 28.957 43.0446 30.338 44.7481 30.338Z" fill="#4A3AFF"/>
<path d="M36.5225 38.5635C38.2261 38.5635 39.6071 37.1825 39.6071 35.479C39.6071 33.7754 38.2261 32.3944 36.5225 32.3944C34.819 32.3944 33.438 33.7754 33.438 35.479C33.438 37.1825 34.819 38.5635 36.5225 38.5635Z" fill="#4A3AFF"/>
<path d="M21.5688 41.8394C21.322 42.0224 21.0732 42.2033 20.8511 42.4254C19.3787 43.8978 18.1696 48.3683 17.4519 51.6215C17.0653 53.3735 18.6282 54.9364 20.3802 54.5498C23.6313 53.8321 28.1039 52.6229 29.5763 51.1506C29.8004 50.9264 29.9814 50.6797 30.1623 50.4329L21.5688 41.8394Z" fill="#4A3AFF"/>
</svg>
